<?xml version="1.0" encoding="utf-8"?>
<!-- Generator: Adobe Illustrator 16.0.0, SVG Export Plug-In . SVG Version: 6.00 Build 0)  -->
<!DOCTYPE svg PUBLIC "-//W3C//DTD SVG 1.0//EN" "http://www.w3.org/TR/2001/REC-SVG-20010904/DTD/svg10.dtd">
<svg version="1.0" id="Capa_1" xmlns="http://www.w3.org/2000/svg" xmlns:xlink="http://www.w3.org/1999/xlink" x="0px" y="0px"
	 width="116px" height="38px" viewBox="0 0 116 38" enable-background="new 0 0 116 38" xml:space="preserve">
<g>
	<g>
		<path fill="#FFFFFF" stroke="#FFFFFF" stroke-width="0.3521" d="M16.287,14.552l2.772,2.651l-0.24,0.261
			c-0.247-0.145-0.436-0.203-0.567-0.173c-0.131,0.029-0.461,0.287-0.988,0.772c-1.094,1.004-2.042,1.727-2.843,2.171
			c-0.802,0.442-1.792,0.795-2.975,1.059c-2.357,0.524-4.415,0.397-6.174-0.384c-1.035-0.45-1.915-1.101-2.64-1.95
			c-0.836-0.97-1.402-2.12-1.698-3.447c-0.403-1.81-0.224-3.5,0.537-5.071C2.616,8.08,4.797,6.542,8.015,5.826
			c1.182-0.264,2.224-0.365,3.125-0.305c0.901,0.06,2.069,0.313,3.5,0.76c0.682,0.208,1.089,0.297,1.22,0.268
			c0.131-0.029,0.278-0.161,0.44-0.396l0.329,0.133l-1.385,3.583l-0.339-0.13c-0.011-0.12-0.025-0.219-0.043-0.299
			c-0.047-0.21-0.183-0.388-0.406-0.533c-0.224-0.145-0.598-0.296-1.124-0.454c-1.453-0.439-2.903-0.499-4.347-0.177
			c-1.708,0.38-2.974,1.109-3.797,2.188c-0.975,1.265-1.282,2.703-0.924,4.313c0.359,1.611,1.248,2.783,2.667,3.515
			c1.205,0.627,2.66,0.75,4.367,0.37c1.445-0.321,2.732-0.991,3.861-2.008c0.409-0.367,0.683-0.663,0.824-0.89
			c0.141-0.227,0.188-0.445,0.141-0.657c-0.018-0.08-0.047-0.173-0.085-0.279L16.287,14.552z"/>
		<path fill="#FFFFFF" stroke="#FFFFFF" stroke-width="0.3521" d="M27.513,2.582c2.652-0.313,4.839,0.155,6.562,1.404
			c1.819,1.305,2.869,3.146,3.149,5.522c0.171,1.455-0.062,2.86-0.7,4.215c-1.247,2.646-3.623,4.177-7.129,4.591
			c-2.63,0.311-4.805-0.159-6.527-1.408c-0.922-0.666-1.662-1.509-2.219-2.527c-0.491-0.898-0.797-1.866-0.919-2.906
			c-0.18-1.521,0.045-2.959,0.676-4.314C21.613,4.571,23.982,3.045,27.513,2.582z M27.83,5.165c-1.449,0.171-2.606,0.744-3.47,1.719
			c-1.024,1.151-1.439,2.55-1.245,4.196c0.194,1.646,0.924,2.91,2.188,3.791c1.068,0.747,2.333,1.033,3.797,0.86
			c1.464-0.173,2.624-0.747,3.482-1.72c0.511-0.579,0.875-1.258,1.093-2.035c0.19-0.692,0.243-1.39,0.159-2.095
			c-0.203-1.72-0.935-3.006-2.196-3.857C30.565,5.292,29.295,5.006,27.83,5.165z"/>
		<path fill="#FFFFFF" stroke="#FFFFFF" stroke-width="0.3521" d="M43.619,6.278l0.314,9.302c0.008,0.232,0.066,0.406,0.175,0.521
			c0.108,0.117,0.298,0.208,0.57,0.272l0.012,0.359l-4.494,0.152l-0.013-0.358c0.267-0.083,0.45-0.187,0.551-0.31
			s0.147-0.3,0.139-0.532L40.437,2.728c-0.008-0.224-0.065-0.394-0.174-0.51c-0.109-0.116-0.299-0.207-0.571-0.272L39.68,1.587
			l5.2-0.175l0.012,0.358c-0.319,0.093-0.473,0.271-0.464,0.531c0.005,0.18,0.117,0.374,0.333,0.584l8.735,8.489L53.19,2.297
			c-0.008-0.225-0.066-0.395-0.175-0.51c-0.109-0.116-0.298-0.207-0.57-0.272l-0.012-0.359l4.494-0.152l0.012,0.358
			c-0.267,0.084-0.45,0.188-0.55,0.311c-0.101,0.124-0.147,0.297-0.14,0.521l0.438,12.955c0.008,0.232,0.065,0.405,0.174,0.521
			c0.109,0.117,0.299,0.208,0.57,0.273l0.012,0.358l-4.819,0.163l-0.012-0.358c0.312-0.078,0.463-0.244,0.454-0.498
			c-0.005-0.149-0.196-0.404-0.575-0.766L43.619,6.278z"/>
		<path fill="#FFFFFF" stroke="#FFFFFF" stroke-width="0.3521" d="M60.684,15.179L61.235,2.24c0.01-0.231-0.035-0.41-0.135-0.533
			c-0.098-0.124-0.281-0.229-0.546-0.315l0.014-0.358l8.53,0.364c1.869,0.08,3.295,0.354,4.279,0.822
			c1.408,0.681,2.426,1.75,3.053,3.205c0.496,1.144,0.715,2.466,0.65,3.967c-0.111,2.637-1.01,4.611-2.689,5.924
			c-0.705,0.554-1.52,0.936-2.441,1.147s-2.09,0.287-3.502,0.227l-8.532-0.364l0.016-0.358c0.271-0.063,0.463-0.152,0.572-0.267
			S60.674,15.411,60.684,15.179z M64.079,13.977l4.195,0.179c1.338,0.057,2.352-0.083,3.041-0.42
			c1.477-0.723,2.264-2.219,2.359-4.49c0.07-1.643-0.264-2.918-1.004-3.825c-0.414-0.504-0.924-0.871-1.527-1.103
			c-0.604-0.231-1.414-0.369-2.432-0.413l-4.195-0.179L64.079,13.977z"/>
		<path fill="#FFFFFF" stroke="#FFFFFF" stroke-width="0.3521" d="M89.149,2.812c2.648,0.336,4.658,1.318,6.027,2.946
			c1.449,1.707,2.025,3.746,1.725,6.119c-0.186,1.454-0.75,2.761-1.697,3.922c-1.848,2.267-4.525,3.178-8.027,2.734
			c-2.625-0.333-4.625-1.313-5.994-2.942c-0.734-0.869-1.248-1.865-1.543-2.987c-0.26-0.99-0.322-2.004-0.191-3.042
			c0.193-1.52,0.76-2.861,1.699-4.023C82.944,3.317,85.612,2.408,89.149,2.812z M88.833,5.394c-1.447-0.184-2.709,0.093-3.783,0.83
			c-1.271,0.869-2.012,2.126-2.219,3.771c-0.209,1.644,0.191,3.046,1.209,4.207c0.855,0.982,2.014,1.565,3.477,1.751
			c1.463,0.185,2.727-0.09,3.793-0.829c0.637-0.438,1.154-1.009,1.553-1.711c0.352-0.625,0.57-1.29,0.66-1.994
			c0.219-1.718-0.182-3.143-1.199-4.273C91.458,6.179,90.294,5.594,88.833,5.394z"/>
		<path fill="#FFFFFF" stroke="#FFFFFF" stroke-width="0.3521" d="M103.317,14.576l-1.166,4.944
			c-0.053,0.218-0.039,0.399,0.037,0.545c0.078,0.145,0.236,0.28,0.475,0.406l-0.082,0.348l-4.648-1.095l0.082-0.35
			c0.279-0.011,0.482-0.063,0.613-0.155c0.129-0.092,0.219-0.248,0.271-0.466l2.975-12.616c0.053-0.226,0.041-0.408-0.033-0.548
			c-0.074-0.141-0.232-0.278-0.479-0.413l0.082-0.349l9.32,2.198c1.137,0.267,2.021,0.545,2.654,0.833
			c0.637,0.288,1.162,0.654,1.58,1.098c0.486,0.514,0.793,1.128,0.924,1.842c0.121,0.689,0.1,1.39-0.07,2.104
			c-0.572,2.43-2.256,3.534-5.053,3.312l1.92,4.796c0.34,0.841,0.604,1.394,0.791,1.656c0.188,0.264,0.449,0.445,0.787,0.549
			l-0.082,0.349l-5.383-1.269l0.082-0.35c0.385,0.029,0.6-0.059,0.648-0.263c0.031-0.131-0.066-0.487-0.287-1.07l-1.982-5.098
			L103.317,14.576z M103.896,12.12l5.02,1.184c0.742,0.175,1.271,0.277,1.588,0.305s0.617,0.003,0.904-0.074
			c0.623-0.168,1.027-0.641,1.211-1.42c0.184-0.778,0.033-1.382-0.449-1.811c-0.227-0.208-0.484-0.366-0.77-0.476
			c-0.285-0.109-0.805-0.253-1.563-0.432l-5.02-1.184L103.896,12.12z"/>
	</g>
	<g>
		<path fill="#FFFFFF" stroke="#FFFFFF" stroke-width="0.3521" d="M37.874,30.572l2.456,2.946l-0.269,0.232
			c-0.229-0.172-0.41-0.25-0.544-0.235s-0.49,0.232-1.069,0.655c-1.201,0.874-2.224,1.485-3.069,1.836
			c-0.846,0.35-1.872,0.589-3.076,0.717c-2.401,0.256-4.431-0.104-6.091-1.078c-0.977-0.565-1.778-1.311-2.403-2.237
			c-0.721-1.058-1.154-2.263-1.298-3.616c-0.196-1.844,0.173-3.503,1.106-4.978c1.403-2.217,3.744-3.499,7.022-3.848
			c1.204-0.128,2.251-0.111,3.14,0.05c0.889,0.161,2.021,0.545,3.393,1.15c0.654,0.283,1.048,0.418,1.182,0.404
			c0.133-0.014,0.294-0.129,0.481-0.345l0.312,0.17l-1.781,3.404l-0.323-0.169c0.002-0.12-0.001-0.221-0.01-0.302
			c-0.022-0.215-0.137-0.407-0.343-0.576s-0.561-0.361-1.065-0.578c-1.395-0.601-2.828-0.822-4.299-0.665
			c-1.739,0.184-3.08,0.766-4.021,1.745c-1.111,1.146-1.579,2.54-1.405,4.182c0.174,1.641,0.925,2.905,2.252,3.793
			c1.125,0.759,2.558,1.046,4.297,0.861c1.472-0.157,2.826-0.676,4.063-1.561c0.447-0.317,0.753-0.582,0.919-0.791
			c0.166-0.209,0.237-0.421,0.214-0.637c-0.009-0.082-0.027-0.178-0.053-0.287L37.874,30.572z"/>
		<path fill="#FFFFFF" stroke="#FFFFFF" stroke-width="0.3521" d="M52.775,31.3l-6.953,0.212l-0.964,2.183
			c-0.133,0.304-0.196,0.541-0.191,0.713c0.01,0.329,0.267,0.55,0.77,0.661l0.011,0.359l-5.06,0.153l-0.011-0.358
			c0.297-0.069,0.521-0.181,0.674-0.335c0.152-0.153,0.322-0.451,0.511-0.89l5.268-11.929c0.168-0.379,0.249-0.681,0.241-0.905
			c-0.01-0.344-0.235-0.584-0.672-0.72l-0.011-0.358l5.425-0.166l0.011,0.359c-0.437,0.141-0.65,0.367-0.641,0.682
			c0.006,0.216,0.085,0.46,0.235,0.733l6.188,11.612c0.262,0.493,0.49,0.828,0.681,1.005c0.192,0.178,0.447,0.292,0.762,0.342
			l0.012,0.358l-5.633,0.172l-0.011-0.358c0.492-0.097,0.732-0.337,0.721-0.718c-0.005-0.157-0.087-0.386-0.246-0.688L52.775,31.3z
			 M51.75,29.233l-2.647-5.374l-2.354,5.526L51.75,29.233z"/>
		<path fill="#FFFFFF" stroke="#FFFFFF" stroke-width="0.3521" d="M63.845,28.55l-0.197,5.513c-0.01,0.231,0.037,0.411,0.141,0.539
			c0.105,0.127,0.287,0.229,0.545,0.306l-0.012,0.358l-4.774-0.172l0.014-0.358c0.271-0.065,0.461-0.155,0.57-0.272
			c0.109-0.115,0.168-0.288,0.176-0.52l0.466-12.942c0.008-0.231-0.037-0.41-0.138-0.532c-0.1-0.124-0.283-0.228-0.549-0.313
			l0.012-0.358l13.536,0.487c0.225,0.009,0.396-0.037,0.521-0.136c0.123-0.099,0.227-0.283,0.311-0.552l0.359,0.013l-0.143,3.956
			l-0.357-0.014c-0.066-0.276-0.156-0.467-0.271-0.574c-0.115-0.106-0.285-0.163-0.51-0.172l-9.48-0.341l-0.131,3.653l6.195,0.223
			c0.232,0.008,0.41-0.04,0.533-0.142s0.229-0.284,0.311-0.547l0.359,0.014l-0.139,3.866l-0.359-0.014
			c-0.064-0.268-0.156-0.457-0.271-0.568c-0.115-0.11-0.289-0.17-0.521-0.179L63.845,28.55z"/>
		<path fill="#FFFFFF" stroke="#FFFFFF" stroke-width="0.3521" d="M80.147,29.452l-0.439,4.172l9.789,1.031
			c0.225,0.023,0.4-0.011,0.531-0.103s0.246-0.267,0.348-0.526l0.357,0.037L90.319,38l-0.357-0.038
			c-0.045-0.275-0.123-0.471-0.23-0.587c-0.109-0.118-0.275-0.187-0.498-0.211l-13.826-1.457l0.037-0.356
			c0.275-0.047,0.473-0.124,0.588-0.232c0.117-0.107,0.188-0.276,0.213-0.508l1.355-12.879c0.025-0.229-0.01-0.41-0.1-0.54
			c-0.092-0.131-0.268-0.246-0.527-0.35l0.037-0.356l13.561,1.43c0.223,0.022,0.398-0.012,0.529-0.105s0.246-0.269,0.348-0.524
			l0.357,0.038l-0.414,3.937l-0.357-0.038c-0.047-0.272-0.123-0.468-0.23-0.585c-0.109-0.119-0.275-0.189-0.496-0.214l-9.523-1.003
			l-0.381,3.612l6.178,0.651c0.223,0.023,0.398-0.01,0.527-0.102c0.131-0.092,0.246-0.268,0.35-0.526l0.357,0.037l-0.406,3.848
			l-0.355-0.038c-0.047-0.269-0.125-0.462-0.232-0.582c-0.107-0.121-0.273-0.193-0.496-0.217L80.147,29.452z"/>
	</g>
</g>
</svg>
